<svg id="layer1" xmlns="http://www.w3.org/2000/svg" width="15.996" height="15.996" viewBox="0 0 15.996 15.996">
  <path id="path2546" d="M3.723,1.33v.8h-2.4a.8.8,0,0,0-.8.8V15.721a.8.8,0,0,0,.8.8h14.4a.8.8,0,0,0,.8-.8V2.93a.8.8,0,0,0-.8-.8h-2.4v-.8a.8.8,0,1,0-1.6,0v.8h-6.4v-.8a.8.8,0,1,0-1.6,0Zm-1.594,2.4H3.723v.8a.8.8,0,0,0,1.6,0v-.8h6.4v.8a.8.8,0,0,0,1.6,0v-.8h1.6v2.4H2.129Zm0,4h12.8v7.2H2.129Zm1.594.8a.8.8,0,0,0,0,1.6h1.6a.8.8,0,1,0,0-1.6Zm4,0a.8.8,0,1,0,0,1.6h1.6a.8.8,0,1,0,0-1.6Zm4,0a.8.8,0,0,0,0,1.6h1.6a.8.8,0,1,0,0-1.6Zm-8,3.2a.8.8,0,0,0,0,1.6h1.6a.8.8,0,1,0,0-1.6Zm4,0a.8.8,0,1,0,0,1.6h1.6a.8.8,0,0,0,0-1.6Zm4,0a.8.8,0,0,0,0,1.6h1.6a.8.8,0,1,0,0-1.6Z" transform="translate(-0.529 -0.529)" fill="#6a6a6a"/>
</svg>
